<svg width="41" height="17" viewBox="0 0 41 17" fill="none" xmlns="http://www.w3.org/2000/svg">
<path d="M2.87116 6.66155C2.87116 6.21896 3.23431 6.04873 3.83578 6.04873C4.69826 6.04873 5.78772 6.30975 6.6502 6.77503V4.10814C5.70828 3.73364 4.7777 3.58611 3.83578 3.58611C1.53204 3.58611 0 4.78905 0 6.79773C0 9.92991 4.31242 9.43057 4.31242 10.781C4.31242 11.3031 3.85848 11.4733 3.22296 11.4733C2.28104 11.4733 1.0781 11.0875 0.124833 10.5654V13.2664C1.18024 13.7203 2.247 13.9132 3.22296 13.9132C5.58344 13.9132 7.20627 12.7443 7.20627 10.713C7.19493 7.33111 2.87116 7.93258 2.87116 6.66155ZM10.5427 1.31642L7.7737 1.90654L7.76235 10.9967C7.76235 12.6762 9.02203 13.9132 10.7016 13.9132C11.6322 13.9132 12.3131 13.743 12.6876 13.5387V11.235C12.3244 11.3825 10.5314 11.9045 10.5314 10.225V6.19626H12.6876V3.77904H10.5314L10.5427 1.31642ZM16.217 4.61883L16.0354 3.77904H13.5841V13.7089H16.4212V6.97931C17.0908 6.10547 18.2256 6.26435 18.5774 6.38919V3.77904C18.2143 3.64286 16.8865 3.39319 16.217 4.61883ZM19.2697 3.77904H22.1182V13.7089H19.2697V3.77904ZM19.2697 2.91656L22.1182 2.30374V0L19.2697 0.601469V2.91656ZM28.0421 3.58611C26.9299 3.58611 26.215 4.10814 25.8178 4.4713L25.6702 3.76769H23.1736V17L26.0107 16.3985L26.022 13.1869C26.4306 13.482 27.032 13.9019 28.0307 13.9019C30.0621 13.9019 31.9119 12.2677 31.9119 8.67023C31.9005 5.37917 30.028 3.58611 28.0421 3.58611ZM27.3611 11.4052C26.6916 11.4052 26.2944 11.1669 26.022 10.8718L26.0107 6.66155C26.3057 6.33244 26.7143 6.10547 27.3611 6.10547C28.3939 6.10547 29.1088 7.26302 29.1088 8.74967C29.1088 10.2704 28.4052 11.4052 27.3611 11.4052ZM40.8545 8.78371C40.8545 5.8785 39.4473 3.58611 36.7577 3.58611C34.0567 3.58611 32.4226 5.8785 32.4226 8.76101C32.4226 12.1769 34.3518 13.9019 37.1208 13.9019C38.4713 13.9019 39.4927 13.5955 40.2644 13.1642V10.8945C39.4927 11.2804 38.6075 11.5187 37.484 11.5187C36.3832 11.5187 35.4072 11.1328 35.2824 9.79373H40.8318C40.8318 9.6462 40.8545 9.05608 40.8545 8.78371ZM35.2483 7.70561C35.2483 6.42323 36.0314 5.88985 36.7463 5.88985C37.4386 5.88985 38.1762 6.42323 38.1762 7.70561H35.2483Z" fill="white"/>
</svg>
