<svg width="297" height="39" viewBox="0 0 297 39" fill="none" xmlns="http://www.w3.org/2000/svg">
<path fill-rule="evenodd" clip-rule="evenodd" d="M245.027 30.0766C239.876 30.1772 231.77 30.4612 228.661 30.6539C224.727 30.8962 219.895 31.4821 218.47 31.8838C217.705 32.1013 217.431 32.503 217.787 32.8714C217.928 33.0138 218.069 33.0223 219.962 32.972C223.881 32.8629 227.25 32.7212 227.317 32.6539C227.354 32.6206 227.362 32.5285 227.332 32.4534C227.295 32.3281 227.124 32.3195 225.64 32.3613C224.727 32.3861 224.022 32.3946 224.059 32.3784C224.171 32.3195 228.172 32.0858 230.628 31.9937C239.178 31.6756 257.245 31.6005 267.443 31.8513C277.099 32.0858 279.356 32.1694 287.15 32.5873C292.828 32.8969 295.329 32.9387 295.73 32.7383C296.027 32.5796 296.124 32.3366 295.975 32.0943C295.893 31.9604 295.745 31.9271 294.965 31.8853C294.46 31.8521 292.731 31.7182 291.12 31.5843C280.232 30.6454 274.524 30.3521 261.356 30.068C257.17 29.9759 249.807 29.9759 245.027 30.0766Z" fill="#FF8845"/>
<path d="M225.221 26.752C223.531 26.752 222.122 26.416 220.993 25.744C219.873 25.0627 219.033 24.1667 218.473 23.056C217.913 21.936 217.633 20.7133 217.633 19.388C217.633 18.1093 217.894 16.9287 218.417 15.846C218.949 14.7633 219.723 13.8953 220.741 13.242C221.758 12.5793 222.999 12.248 224.465 12.248C225.809 12.248 226.929 12.5233 227.825 13.074C228.721 13.6247 229.393 14.362 229.841 15.286C230.289 16.2007 230.513 17.2133 230.513 18.324C230.513 18.632 230.494 18.9447 230.457 19.262C230.419 19.57 230.363 19.892 230.289 20.228H221.245C221.375 21.096 221.646 21.8007 222.057 22.342C222.477 22.874 222.985 23.266 223.583 23.518C224.189 23.77 224.838 23.896 225.529 23.896C226.341 23.896 227.097 23.7933 227.797 23.588C228.497 23.3733 229.141 23.0933 229.729 22.748L229.897 25.688C229.365 25.968 228.702 26.2153 227.909 26.43C227.115 26.6447 226.219 26.752 225.221 26.752ZM221.329 17.876H226.985C226.985 17.456 226.905 17.036 226.747 16.616C226.588 16.1867 226.322 15.8273 225.949 15.538C225.585 15.2487 225.09 15.104 224.465 15.104C223.569 15.104 222.864 15.3653 222.351 15.888C221.837 16.4107 221.497 17.0733 221.329 17.876Z" fill="#FF8845"/>
<path d="M236.582 26.472L231.206 12.472H234.622L238.066 22.16L241.51 12.472H244.926L239.55 26.472H236.582Z" fill="#FF8845"/>
<path d="M253.139 26.752C251.449 26.752 250.04 26.416 248.911 25.744C247.791 25.0627 246.951 24.1667 246.391 23.056C245.831 21.936 245.551 20.7133 245.551 19.388C245.551 18.1093 245.812 16.9287 246.335 15.846C246.867 14.7633 247.641 13.8953 248.659 13.242C249.676 12.5793 250.917 12.248 252.383 12.248C253.727 12.248 254.847 12.5233 255.743 13.074C256.639 13.6247 257.311 14.362 257.759 15.286C258.207 16.2007 258.431 17.2133 258.431 18.324C258.431 18.632 258.412 18.9447 258.375 19.262C258.337 19.57 258.281 19.892 258.207 20.228H249.163C249.293 21.096 249.564 21.8007 249.975 22.342C250.395 22.874 250.903 23.266 251.501 23.518C252.107 23.77 252.756 23.896 253.447 23.896C254.259 23.896 255.015 23.7933 255.715 23.588C256.415 23.3733 257.059 23.0933 257.647 22.748L257.815 25.688C257.283 25.968 256.62 26.2153 255.827 26.43C255.033 26.6447 254.137 26.752 253.139 26.752ZM249.247 17.876H254.903C254.903 17.456 254.823 17.036 254.665 16.616C254.506 16.1867 254.24 15.8273 253.867 15.538C253.503 15.2487 253.008 15.104 252.383 15.104C251.487 15.104 250.782 15.3653 250.269 15.888C249.755 16.4107 249.415 17.0733 249.247 17.876Z" fill="#FF8845"/>
<path d="M260.801 26.472V12.472H264.049L264.189 15.076L263.377 14.012C263.909 13.564 264.544 13.158 265.281 12.794C266.018 12.43 266.877 12.248 267.857 12.248C269.649 12.248 270.979 12.8453 271.847 14.04C272.715 15.2253 273.149 16.7653 273.149 18.66V26.472H269.677V18.94C269.677 17.6333 269.458 16.6673 269.019 16.042C268.59 15.4167 267.885 15.104 266.905 15.104C266.112 15.104 265.463 15.3 264.959 15.692C264.455 16.0747 264.012 16.588 263.629 17.232L264.273 15.524V26.472H260.801Z" fill="#FF8845"/>
<path d="M280.65 26.752C279.773 26.752 279.059 26.5747 278.508 26.22C277.957 25.856 277.551 25.394 277.29 24.834C277.029 24.274 276.898 23.6907 276.898 23.084V15.328H274.91L275.218 12.472H276.898V9.392L280.37 9.028V12.472H283.45V15.328H280.37V21.656C280.37 22.3653 280.412 22.8787 280.496 23.196C280.58 23.504 280.771 23.7 281.07 23.784C281.369 23.8587 281.845 23.896 282.498 23.896H283.45L283.142 26.752H280.65Z" fill="#FF8845"/>
<path d="M289.687 26.752C288.763 26.752 287.928 26.6633 287.181 26.486C286.444 26.3087 285.702 26.052 284.955 25.716L285.263 22.748C285.982 23.168 286.686 23.5087 287.377 23.77C288.077 24.022 288.81 24.148 289.575 24.148C290.266 24.148 290.793 24.036 291.157 23.812C291.521 23.588 291.703 23.2333 291.703 22.748C291.703 22.384 291.605 22.0853 291.409 21.852C291.222 21.6187 290.938 21.4087 290.555 21.222C290.172 21.0353 289.696 20.8347 289.127 20.62C288.268 20.3027 287.536 19.9573 286.929 19.584C286.332 19.2107 285.874 18.7627 285.557 18.24C285.249 17.708 285.095 17.0547 285.095 16.28C285.095 15.4773 285.305 14.768 285.725 14.152C286.145 13.536 286.742 13.0553 287.517 12.71C288.292 12.3647 289.211 12.192 290.275 12.192C291.162 12.192 291.955 12.29 292.655 12.486C293.364 12.682 294.018 12.948 294.615 13.284L294.307 16.252C293.682 15.8133 293.052 15.454 292.417 15.174C291.782 14.8847 291.087 14.74 290.331 14.74C289.734 14.74 289.272 14.8613 288.945 15.104C288.618 15.3467 288.455 15.692 288.455 16.14C288.455 16.6813 288.684 17.0873 289.141 17.358C289.598 17.6287 290.331 17.96 291.339 18.352C291.992 18.604 292.557 18.8653 293.033 19.136C293.518 19.4067 293.92 19.7053 294.237 20.032C294.554 20.3587 294.788 20.732 294.937 21.152C295.096 21.5627 295.175 22.0387 295.175 22.58C295.175 23.4667 294.96 24.2227 294.531 24.848C294.111 25.464 293.49 25.9353 292.669 26.262C291.857 26.5887 290.863 26.752 289.687 26.752Z" fill="#FF8845"/>
<path d="M55.4879 26.752C54.5639 26.752 53.7285 26.6633 52.9819 26.486C52.2445 26.3087 51.5025 26.052 50.7559 25.716L51.0639 22.748C51.7825 23.168 52.4872 23.5087 53.1779 23.77C53.8779 24.022 54.6105 24.148 55.3759 24.148C56.0665 24.148 56.5939 24.036 56.9579 23.812C57.3219 23.588 57.5039 23.2333 57.5039 22.748C57.5039 22.384 57.4059 22.0853 57.2099 21.852C57.0232 21.6187 56.7385 21.4087 56.3559 21.222C55.9732 21.0353 55.4972 20.8347 54.9279 20.62C54.0692 20.3027 53.3365 19.9573 52.7299 19.584C52.1325 19.2107 51.6752 18.7627 51.3579 18.24C51.0499 17.708 50.8959 17.0547 50.8959 16.28C50.8959 15.4773 51.1059 14.768 51.5259 14.152C51.9459 13.536 52.5432 13.0553 53.3179 12.71C54.0925 12.3647 55.0119 12.192 56.0759 12.192C56.9625 12.192 57.7559 12.29 58.4559 12.486C59.1652 12.682 59.8185 12.948 60.4159 13.284L60.1079 16.252C59.4825 15.8133 58.8525 15.454 58.2179 15.174C57.5832 14.8847 56.8879 14.74 56.1319 14.74C55.5345 14.74 55.0725 14.8613 54.7459 15.104C54.4192 15.3467 54.2559 15.692 54.2559 16.14C54.2559 16.6813 54.4845 17.0873 54.9419 17.358C55.3992 17.6287 56.1319 17.96 57.1399 18.352C57.7932 18.604 58.3579 18.8653 58.8339 19.136C59.3192 19.4067 59.7205 19.7053 60.0379 20.032C60.3552 20.3587 60.5885 20.732 60.7379 21.152C60.8965 21.5627 60.9759 22.0387 60.9759 22.58C60.9759 23.4667 60.7612 24.2227 60.3319 24.848C59.9119 25.464 59.2912 25.9353 58.4699 26.262C57.6579 26.5887 56.6639 26.752 55.4879 26.752Z" fill="#2C3338"/>
<path d="M69.1477 26.752C67.6917 26.752 66.5297 26.4627 65.6617 25.884C64.7937 25.3053 64.1684 24.512 63.7857 23.504C63.403 22.4867 63.2117 21.32 63.2117 20.004V12.472H66.6837V20.004C66.6837 21.3013 66.8984 22.2673 67.3277 22.902C67.7664 23.5273 68.4757 23.84 69.4557 23.84C70.2397 23.84 70.8884 23.6533 71.4017 23.28C71.9244 22.9067 72.3584 22.384 72.7037 21.712L72.0877 23.476V12.472H75.5597V26.472H72.3117L72.1437 24.036L72.8997 25.016C72.5637 25.4453 72.0317 25.842 71.3037 26.206C70.585 26.57 69.8664 26.752 69.1477 26.752Z" fill="#2C3338"/>
<path d="M84.3449 33.528C83.0383 33.528 81.8949 33.3647 80.9149 33.038C79.9443 32.7207 79.1883 32.2633 78.6469 31.666C78.1149 31.0687 77.8489 30.3547 77.8489 29.524C77.8489 28.824 78.0403 28.1987 78.4229 27.648C78.8149 27.1067 79.3796 26.6307 80.1169 26.22C79.7436 25.996 79.4449 25.716 79.2209 25.38C78.9969 25.044 78.8849 24.6613 78.8849 24.232C78.8849 23.784 79.0109 23.3967 79.2629 23.07C79.5243 22.734 79.8649 22.468 80.2849 22.272C79.5756 21.768 79.0389 21.124 78.6749 20.34C78.3109 19.5467 78.1289 18.688 78.1289 17.764C78.1289 16.756 78.3483 15.832 78.7869 14.992C79.2256 14.1427 79.8649 13.466 80.7049 12.962C81.5543 12.4487 82.5903 12.192 83.8129 12.192C84.4476 12.192 85.0309 12.2713 85.5629 12.43C86.1043 12.5887 86.5849 12.808 87.0049 13.088C87.2849 12.9293 87.6909 12.7893 88.2229 12.668C88.7549 12.5373 89.3476 12.472 90.0009 12.472C90.1596 12.472 90.3089 12.472 90.4489 12.472C90.5983 12.472 90.7476 12.472 90.8969 12.472L90.6729 14.656C90.4676 14.656 90.2576 14.656 90.0429 14.656C89.8376 14.656 89.6276 14.656 89.4129 14.656C89.3289 14.656 89.2169 14.656 89.0769 14.656C88.9369 14.656 88.7876 14.6653 88.6289 14.684C88.9089 15.1133 89.1189 15.594 89.2589 16.126C89.3989 16.658 89.4689 17.204 89.4689 17.764C89.4689 18.772 89.2496 19.7007 88.8109 20.55C88.3816 21.39 87.7469 22.0667 86.9069 22.58C86.0669 23.084 85.0356 23.336 83.8129 23.336C83.5516 23.336 83.2996 23.3173 83.0569 23.28C82.8143 23.2427 82.5716 23.196 82.3289 23.14C82.1236 23.224 82.0209 23.3733 82.0209 23.588C82.0209 23.84 82.1749 24.0313 82.4829 24.162C82.7909 24.2927 83.2716 24.4093 83.9249 24.512L86.3329 24.82C87.8356 25.016 89.0116 25.4407 89.8609 26.094C90.7196 26.7473 91.1489 27.676 91.1489 28.88C91.1489 29.8133 90.8783 30.6253 90.3369 31.316C89.8049 32.016 89.0303 32.5573 88.0129 32.94C86.9956 33.332 85.7729 33.528 84.3449 33.528ZM84.4849 30.896C85.6609 30.896 86.5523 30.7513 87.1589 30.462C87.7656 30.1727 88.0689 29.7293 88.0689 29.132C88.0689 28.6 87.8543 28.208 87.4249 27.956C87.0049 27.704 86.3329 27.508 85.4089 27.368L82.3429 26.92C81.8856 27.0973 81.5029 27.34 81.1949 27.648C80.8869 27.9653 80.7329 28.376 80.7329 28.88C80.7329 29.5613 81.0643 30.0653 81.7269 30.392C82.3896 30.728 83.3089 30.896 84.4849 30.896ZM83.8129 20.76C84.6436 20.76 85.2689 20.4893 85.6889 19.948C86.1183 19.3973 86.3329 18.6693 86.3329 17.764C86.3329 16.8493 86.1183 16.1213 85.6889 15.58C85.2689 15.0387 84.6436 14.768 83.8129 14.768C82.9729 14.768 82.3383 15.0387 81.9089 15.58C81.4796 16.1213 81.2649 16.8493 81.2649 17.764C81.2649 18.6693 81.4796 19.3973 81.9089 19.948C82.3383 20.4893 82.9729 20.76 83.8129 20.76Z" fill="#2C3338"/>
<path d="M95.8523 26.752C95.1056 26.752 94.4243 26.5887 93.8083 26.262C93.1923 25.926 92.7023 25.4453 92.3383 24.82C91.9743 24.1947 91.7923 23.4387 91.7923 22.552C91.7923 21.7587 91.9743 21.082 92.3383 20.522C92.7116 19.9527 93.1969 19.4813 93.7943 19.108C94.4009 18.7253 95.0543 18.4267 95.7543 18.212C96.4636 17.988 97.1589 17.8247 97.8403 17.722C98.5309 17.6193 99.1376 17.5587 99.6603 17.54C99.6229 16.7373 99.4176 16.154 99.0443 15.79C98.6709 15.426 98.0363 15.244 97.1403 15.244C96.5149 15.244 95.9036 15.3327 95.3063 15.51C94.7183 15.678 94.0509 15.944 93.3043 16.308L92.9963 13.48C93.8363 13.0693 94.6763 12.7613 95.5163 12.556C96.3656 12.3507 97.2243 12.248 98.0923 12.248C99.1376 12.248 100.038 12.4347 100.794 12.808C101.55 13.1813 102.134 13.7833 102.544 14.614C102.955 15.4353 103.16 16.5227 103.16 17.876V21.656C103.16 22.356 103.193 22.8647 103.258 23.182C103.324 23.49 103.445 23.686 103.622 23.77C103.8 23.854 104.056 23.896 104.392 23.896H104.84L104.532 26.752H103.272C102.75 26.752 102.283 26.682 101.872 26.542C101.471 26.4113 101.126 26.2247 100.836 25.982C100.547 25.7393 100.314 25.4547 100.136 25.128C99.6789 25.6413 99.0583 26.0427 98.2743 26.332C97.4996 26.612 96.6923 26.752 95.8523 26.752ZM97.3083 24.092C97.6163 24.092 97.9989 24.0127 98.4563 23.854C98.9136 23.686 99.3243 23.4293 99.6883 23.084V19.892C99.0349 19.92 98.3816 20.0273 97.7283 20.214C97.0749 20.4007 96.5289 20.676 96.0903 21.04C95.6516 21.404 95.4323 21.8613 95.4323 22.412C95.4323 22.9813 95.5816 23.406 95.8803 23.686C96.1789 23.9567 96.6549 24.092 97.3083 24.092Z" fill="#2C3338"/>
<path d="M106.774 26.472V12.472H110.022L110.106 13.956C110.46 13.564 110.96 13.172 111.604 12.78C112.248 12.388 112.952 12.192 113.718 12.192C113.942 12.192 114.147 12.2107 114.334 12.248L114.082 15.664C113.876 15.608 113.671 15.5707 113.466 15.552C113.27 15.5333 113.074 15.524 112.878 15.524C112.29 15.524 111.753 15.6593 111.268 15.93C110.782 16.2007 110.442 16.532 110.246 16.924V26.472H106.774Z" fill="#2C3338"/>
<path d="M122.266 26.752C120.66 26.752 119.312 26.4253 118.22 25.772C117.137 25.1093 116.316 24.232 115.756 23.14C115.205 22.0387 114.93 20.8253 114.93 19.5C114.93 18.1653 115.205 16.9473 115.756 15.846C116.306 14.7353 117.132 13.8487 118.234 13.186C119.335 12.5233 120.716 12.192 122.378 12.192C123.162 12.192 123.871 12.2807 124.506 12.458C125.14 12.626 125.682 12.836 126.13 13.088L125.85 15.888C125.42 15.664 124.935 15.4773 124.394 15.328C123.862 15.1787 123.302 15.104 122.714 15.104C121.37 15.104 120.329 15.51 119.592 16.322C118.854 17.134 118.486 18.1933 118.486 19.5C118.486 20.7413 118.864 21.7867 119.62 22.636C120.376 23.476 121.398 23.896 122.686 23.896C123.236 23.896 123.778 23.8167 124.31 23.658C124.851 23.49 125.374 23.2613 125.878 22.972L126.186 25.912C125.7 26.164 125.112 26.3647 124.422 26.514C123.74 26.6727 123.022 26.752 122.266 26.752Z" fill="#2C3338"/>
<path d="M131.536 26.752C130.789 26.752 130.108 26.5887 129.492 26.262C128.876 25.926 128.386 25.4453 128.022 24.82C127.658 24.1947 127.476 23.4387 127.476 22.552C127.476 21.7587 127.658 21.082 128.022 20.522C128.395 19.9527 128.881 19.4813 129.478 19.108C130.085 18.7253 130.738 18.4267 131.438 18.212C132.147 17.988 132.843 17.8247 133.524 17.722C134.215 17.6193 134.821 17.5587 135.344 17.54C135.307 16.7373 135.101 16.154 134.728 15.79C134.355 15.426 133.72 15.244 132.824 15.244C132.199 15.244 131.587 15.3327 130.99 15.51C130.402 15.678 129.735 15.944 128.988 16.308L128.68 13.48C129.52 13.0693 130.36 12.7613 131.2 12.556C132.049 12.3507 132.908 12.248 133.776 12.248C134.821 12.248 135.722 12.4347 136.478 12.808C137.234 13.1813 137.817 13.7833 138.228 14.614C138.639 15.4353 138.844 16.5227 138.844 17.876V21.656C138.844 22.356 138.877 22.8647 138.942 23.182C139.007 23.49 139.129 23.686 139.306 23.77C139.483 23.854 139.74 23.896 140.076 23.896H140.524L140.216 26.752H138.956C138.433 26.752 137.967 26.682 137.556 26.542C137.155 26.4113 136.809 26.2247 136.52 25.982C136.231 25.7393 135.997 25.4547 135.82 25.128C135.363 25.6413 134.742 26.0427 133.958 26.332C133.183 26.612 132.376 26.752 131.536 26.752ZM132.992 24.092C133.3 24.092 133.683 24.0127 134.14 23.854C134.597 23.686 135.008 23.4293 135.372 23.084V19.892C134.719 19.92 134.065 20.0273 133.412 20.214C132.759 20.4007 132.213 20.676 131.774 21.04C131.335 21.404 131.116 21.8613 131.116 22.412C131.116 22.9813 131.265 23.406 131.564 23.686C131.863 23.9567 132.339 24.092 132.992 24.092Z" fill="#2C3338"/>
<path d="M146.041 26.752C145.211 26.752 144.529 26.5887 143.997 26.262C143.475 25.926 143.087 25.4827 142.835 24.932C142.583 24.372 142.457 23.756 142.457 23.084V5.472H145.929V21.656C145.929 22.4027 145.971 22.9347 146.055 23.252C146.149 23.56 146.317 23.7467 146.559 23.812C146.802 23.868 147.152 23.896 147.609 23.896L147.301 26.752H146.041Z" fill="#2C3338"/>
<path d="M156.424 26.752C154.735 26.752 153.325 26.416 152.196 25.744C151.076 25.0627 150.236 24.1667 149.676 23.056C149.116 21.936 148.836 20.7133 148.836 19.388C148.836 18.1093 149.097 16.9287 149.62 15.846C150.152 14.7633 150.927 13.8953 151.944 13.242C152.961 12.5793 154.203 12.248 155.668 12.248C157.012 12.248 158.132 12.5233 159.028 13.074C159.924 13.6247 160.596 14.362 161.044 15.286C161.492 16.2007 161.716 17.2133 161.716 18.324C161.716 18.632 161.697 18.9447 161.66 19.262C161.623 19.57 161.567 19.892 161.492 20.228H152.448C152.579 21.096 152.849 21.8007 153.26 22.342C153.68 22.874 154.189 23.266 154.786 23.518C155.393 23.77 156.041 23.896 156.732 23.896C157.544 23.896 158.3 23.7933 159 23.588C159.7 23.3733 160.344 23.0933 160.932 22.748L161.1 25.688C160.568 25.968 159.905 26.2153 159.112 26.43C158.319 26.6447 157.423 26.752 156.424 26.752ZM152.532 17.876H158.188C158.188 17.456 158.109 17.036 157.95 16.616C157.791 16.1867 157.525 15.8273 157.152 15.538C156.788 15.2487 156.293 15.104 155.668 15.104C154.772 15.104 154.067 15.3653 153.554 15.888C153.041 16.4107 152.7 17.0733 152.532 17.876Z" fill="#2C3338"/>
<path d="M164.086 26.472V12.472H167.334L167.474 15.076L166.662 14.012C167.194 13.564 167.829 13.158 168.566 12.794C169.303 12.43 170.162 12.248 171.142 12.248C172.934 12.248 174.264 12.8453 175.132 14.04C176 15.2253 176.434 16.7653 176.434 18.66V26.472H172.962V18.94C172.962 17.6333 172.743 16.6673 172.304 16.042C171.875 15.4167 171.17 15.104 170.19 15.104C169.397 15.104 168.748 15.3 168.244 15.692C167.74 16.0747 167.297 16.588 166.914 17.232L167.558 15.524V26.472H164.086Z" fill="#2C3338"/>
<path d="M185.191 26.752C183.773 26.752 182.578 26.4207 181.607 25.758C180.646 25.0953 179.918 24.2133 179.423 23.112C178.938 22.0107 178.695 20.8067 178.695 19.5C178.695 18.1933 178.938 16.9893 179.423 15.888C179.918 14.7867 180.646 13.9047 181.607 13.242C182.578 12.5793 183.773 12.248 185.191 12.248C186.218 12.248 187.086 12.4207 187.795 12.766C188.505 13.102 189.13 13.536 189.671 14.068L188.831 14.796V5.472H192.303V26.472H189.027L188.859 24.092L189.867 24.82C189.214 25.4173 188.537 25.8887 187.837 26.234C187.137 26.5793 186.255 26.752 185.191 26.752ZM185.695 23.896C186.461 23.896 187.086 23.7093 187.571 23.336C188.057 22.9627 188.416 22.4493 188.649 21.796C188.883 21.1333 188.999 20.368 188.999 19.5C188.999 18.632 188.883 17.8713 188.649 17.218C188.416 16.5553 188.057 16.0373 187.571 15.664C187.086 15.2907 186.461 15.104 185.695 15.104C184.967 15.104 184.347 15.2907 183.833 15.664C183.32 16.0373 182.928 16.5553 182.657 17.218C182.387 17.8713 182.251 18.632 182.251 19.5C182.251 20.368 182.387 21.1333 182.657 21.796C182.928 22.4493 183.32 22.9627 183.833 23.336C184.347 23.7093 184.967 23.896 185.695 23.896Z" fill="#2C3338"/>
<path d="M198.555 26.752C197.809 26.752 197.127 26.5887 196.511 26.262C195.895 25.926 195.405 25.4453 195.041 24.82C194.677 24.1947 194.495 23.4387 194.495 22.552C194.495 21.7587 194.677 21.082 195.041 20.522C195.415 19.9527 195.9 19.4813 196.497 19.108C197.104 18.7253 197.757 18.4267 198.457 18.212C199.167 17.988 199.862 17.8247 200.543 17.722C201.234 17.6193 201.841 17.5587 202.363 17.54C202.326 16.7373 202.121 16.154 201.747 15.79C201.374 15.426 200.739 15.244 199.843 15.244C199.218 15.244 198.607 15.3327 198.009 15.51C197.421 15.678 196.754 15.944 196.007 16.308L195.699 13.48C196.539 13.0693 197.379 12.7613 198.219 12.556C199.069 12.3507 199.927 12.248 200.795 12.248C201.841 12.248 202.741 12.4347 203.497 12.808C204.253 13.1813 204.837 13.7833 205.247 14.614C205.658 15.4353 205.863 16.5227 205.863 17.876V21.656C205.863 22.356 205.896 22.8647 205.961 23.182C206.027 23.49 206.148 23.686 206.325 23.77C206.503 23.854 206.759 23.896 207.095 23.896H207.543L207.235 26.752H205.975C205.453 26.752 204.986 26.682 204.575 26.542C204.174 26.4113 203.829 26.2247 203.539 25.982C203.25 25.7393 203.017 25.4547 202.839 25.128C202.382 25.6413 201.761 26.0427 200.977 26.332C200.203 26.612 199.395 26.752 198.555 26.752ZM200.011 24.092C200.319 24.092 200.702 24.0127 201.159 23.854C201.617 23.686 202.027 23.4293 202.391 23.084V19.892C201.738 19.92 201.085 20.0273 200.431 20.214C199.778 20.4007 199.232 20.676 198.793 21.04C198.355 21.404 198.135 21.8613 198.135 22.412C198.135 22.9813 198.285 23.406 198.583 23.686C198.882 23.9567 199.358 24.092 200.011 24.092Z" fill="#2C3338"/>
<path d="M209.477 26.472V12.472H212.725L212.809 13.956C213.163 13.564 213.663 13.172 214.307 12.78C214.951 12.388 215.655 12.192 216.421 12.192C216.645 12.192 216.85 12.2107 217.037 12.248L216.785 15.664C216.579 15.608 216.374 15.5707 216.169 15.552C215.973 15.5333 215.777 15.524 215.581 15.524C214.993 15.524 214.456 15.6593 213.971 15.93C213.485 16.2007 213.145 16.532 212.949 16.924V26.472H209.477Z" fill="#2C3338"/>
<path fill-rule="evenodd" clip-rule="evenodd" d="M8.61043 2.38902C8.61043 1.90578 8.83009 1.42254 9.18153 1.0711C9.57691 0.719653 10.0601 0.5 10.5873 0.5C11.1145 0.5 11.6416 0.719653 11.9931 1.0711C12.3445 1.42254 12.5642 1.86185 12.5642 2.38902H25.6555C25.6555 1.90578 25.8752 1.42254 26.2266 1.0711C26.5781 0.719653 27.1052 0.5 27.6324 0.5C28.1596 0.5 28.6867 0.719653 29.0382 1.0711C29.3896 1.42254 29.6093 1.86185 29.6093 2.38902H30.2682C34.6174 2.38902 38.1318 5.90347 38.1318 10.2526V30.6364C38.1318 34.9855 34.6174 38.5 30.2682 38.5H7.95147C3.60234 38.5 0.0878906 34.9855 0.0878906 30.6364V10.2526C0.0878906 5.90347 3.60234 2.38902 7.95147 2.38902H8.61043ZM33.2994 28.7913C33.2994 30.1532 32.7723 31.4272 31.8058 32.3936C30.8393 33.3601 29.5653 33.8873 28.2035 33.8873H10.0162C7.20465 33.8873 4.92026 31.6029 4.92026 28.7913V27.8688C4.92026 27.8688 5.05205 27.5613 5.18384 27.5613H23.6347C24.7769 27.5613 25.6555 26.6827 25.6555 25.5405C25.6555 24.4422 24.733 23.5197 23.6347 23.5197H7.20465C6.58962 23.5197 6.01853 23.3 5.57922 22.8607C5.13991 22.4214 4.92026 21.8503 4.92026 21.2792V10.604C4.92026 9.63757 5.31564 8.71503 5.9746 8.05607C6.63356 7.39711 7.5561 7.00173 8.52257 7.00173C8.52257 7.00173 8.52257 7.00173 8.5665 7.00173C8.5665 7.00173 8.5665 7.00173 8.5665 7.04566C8.5665 8.01214 9.35725 8.80289 10.3237 8.80289H10.807C11.7734 8.80289 12.5642 8.01214 12.5642 7.04566C12.5642 7.04566 12.5642 6.9578 12.6521 6.9578H25.5677C25.5677 6.9578 25.6555 6.9578 25.6555 7.04566C25.6555 8.01214 26.4463 8.80289 27.4127 8.80289H27.896C28.8625 8.80289 29.6532 8.01214 29.6532 7.04566V7.00173C29.6532 7.00173 29.6532 7.00173 29.6971 7.00173C31.7179 7.00173 33.2994 8.62717 33.2994 10.604V13.0202C33.2994 13.0202 33.1677 13.3277 33.0359 13.3277H14.6289C13.5307 13.3277 12.6081 14.2064 12.6081 15.3486C12.6081 16.4468 13.5307 17.3694 14.6289 17.3694H31.059C31.674 17.3694 32.2451 17.589 32.6844 18.0283C33.1237 18.4676 33.3434 19.0387 33.3434 19.6098V28.7913H33.2994Z" fill="#FF8845"/>
</svg>
