<svg width="17" height="16" viewBox="0 0 17 16" fill="none" xmlns="http://www.w3.org/2000/svg">
<path fill-rule="evenodd" clip-rule="evenodd" d="M3.60627 0.785241C3.60627 0.582008 3.69865 0.378774 3.84645 0.230968C4.01273 0.0831624 4.21597 -0.00921631 4.43768 -0.00921631C4.65939 -0.00921631 4.88109 0.0831624 5.0289 0.230968C5.17671 0.378774 5.26909 0.563532 5.26909 0.785241H10.7749C10.7749 0.582008 10.8672 0.378774 11.015 0.230968C11.1628 0.0831624 11.3846 -0.00921631 11.6063 -0.00921631C11.828 -0.00921631 12.0497 0.0831624 12.1975 0.230968C12.3453 0.378774 12.4377 0.563532 12.4377 0.785241H12.7148C14.5439 0.785241 16.022 2.2633 16.022 4.0924V12.6651C16.022 14.4942 14.5439 15.9723 12.7148 15.9723H3.32913C1.50003 15.9723 0.0219727 14.4942 0.0219727 12.6651V4.0924C0.0219727 2.2633 1.50003 0.785241 3.32913 0.785241H3.60627ZM13.9896 11.8892C13.9896 12.4619 13.7679 12.9977 13.3615 13.4042C12.955 13.8106 12.4192 14.0324 11.8465 14.0324H4.19749C3.01504 14.0324 2.05431 13.0716 2.05431 11.8892V11.5012C2.05431 11.5012 2.10973 11.3718 2.16516 11.3718H9.92497C10.4053 11.3718 10.7749 11.0023 10.7749 10.522C10.7749 10.0601 10.3869 9.67208 9.92497 9.67208H3.01504C2.75638 9.67208 2.5162 9.5797 2.33144 9.39494C2.14668 9.21018 2.05431 8.97 2.05431 8.72981V4.24021C2.05431 3.83374 2.22059 3.44575 2.49772 3.16861C2.77486 2.89148 3.16285 2.72519 3.56932 2.72519C3.56932 2.72519 3.56932 2.72519 3.58779 2.72519C3.58779 2.72519 3.58779 2.72519 3.58779 2.74367C3.58779 3.15014 3.92036 3.4827 4.32682 3.4827H4.53006C4.93652 3.4827 5.26909 3.15014 5.26909 2.74367C5.26909 2.74367 5.26909 2.70672 5.30604 2.70672H10.7379C10.7379 2.70672 10.7749 2.70672 10.7749 2.74367C10.7749 3.15014 11.1074 3.4827 11.5139 3.4827H11.7171C12.1236 3.4827 12.4562 3.15014 12.4562 2.74367V2.72519C12.4562 2.72519 12.4562 2.72519 12.4746 2.72519C13.3245 2.72519 13.9896 3.4088 13.9896 4.24021V5.25637C13.9896 5.25637 13.9342 5.3857 13.8788 5.3857H6.13745C5.67555 5.3857 5.28756 5.75522 5.28756 6.23559C5.28756 6.69748 5.67555 7.08547 6.13745 7.08547H13.0474C13.306 7.08547 13.5462 7.17785 13.731 7.36261C13.9157 7.54737 14.0081 7.78755 14.0081 8.02773V11.8892H13.9896Z" fill="white"/>
</svg>
