<svg width="11" height="11" viewBox="0 0 11 11" fill="none" xmlns="http://www.w3.org/2000/svg">
<path d="M10.0625 4.875C10.2812 4.875 10.5 5.09375 10.5 5.3125V6.1875C10.5 6.43359 10.2812 6.625 10.0625 6.625H6.125V10.5625C6.125 10.8086 5.90625 11 5.6875 11H4.8125C4.56641 11 4.375 10.8086 4.375 10.5625V6.625H0.4375C0.191406 6.625 0 6.43359 0 6.1875V5.3125C0 5.09375 0.191406 4.875 0.4375 4.875H4.375V0.9375C4.375 0.71875 4.56641 0.5 4.8125 0.5H5.6875C5.90625 0.5 6.125 0.71875 6.125 0.9375V4.875H10.0625Z" fill="white"/>
</svg>
