<svg width="13" height="15" viewBox="0 0 13 15" fill="none" xmlns="http://www.w3.org/2000/svg">
<path d="M3.0625 8.5625C2.81641 8.5625 2.625 8.37109 2.625 8.125V6.375C2.625 6.15625 2.81641 5.9375 3.0625 5.9375H9.1875C9.40625 5.9375 9.625 6.15625 9.625 6.375V8.125C9.625 8.37109 9.40625 8.5625 9.1875 8.5625H3.0625ZM10.9375 2C11.6484 2 12.25 2.60156 12.25 3.3125V12.9375C12.25 13.6758 11.6484 14.25 10.9375 14.25H1.3125C0.574219 14.25 0 13.6758 0 12.9375V3.3125C0 2.60156 0.574219 2 1.3125 2H2.625V0.6875C2.625 0.46875 2.81641 0.25 3.0625 0.25H3.9375C4.15625 0.25 4.375 0.46875 4.375 0.6875V2H7.875V0.6875C7.875 0.46875 8.06641 0.25 8.3125 0.25H9.1875C9.40625 0.25 9.625 0.46875 9.625 0.6875V2H10.9375ZM10.9375 12.7734V4.625H1.3125V12.7734C1.3125 12.8828 1.36719 12.9375 1.47656 12.9375H10.7734C10.8555 12.9375 10.9375 12.8828 10.9375 12.7734Z" fill="black" fill-opacity="0.4"/>
</svg>
