<svg width="17" height="19" viewBox="0 0 17 19" fill="none" xmlns="http://www.w3.org/2000/svg">
<path d="M4.54694 13.1829C4.22551 13.1829 3.97551 12.9322 3.97551 12.6098V9.17073C3.97551 8.88415 4.22551 8.59756 4.54694 8.59756H7.97551C8.26122 8.59756 8.54694 8.88415 8.54694 9.17073V12.6098C8.54694 12.9322 8.26122 13.1829 7.97551 13.1829H4.54694ZM14.8327 2.29268C15.7612 2.29268 16.5469 3.08079 16.5469 4.0122V16.622C16.5469 17.5892 15.7612 18.3415 14.8327 18.3415H2.26122C1.29694 18.3415 0.546936 17.5892 0.546936 16.622V4.0122C0.546936 3.08079 1.29694 2.29268 2.26122 2.29268H3.97551V0.573171C3.97551 0.286585 4.22551 0 4.54694 0H5.68979C5.97551 0 6.26122 0.286585 6.26122 0.573171V2.29268H10.8327V0.573171C10.8327 0.286585 11.0827 0 11.4041 0H12.5469C12.8327 0 13.1184 0.286585 13.1184 0.573171V2.29268H14.8327ZM14.8327 16.407V5.73171H2.26122V16.407C2.26122 16.5503 2.33265 16.622 2.47551 16.622H14.6184C14.7255 16.622 14.8327 16.5503 14.8327 16.407Z" fill="white" fill-opacity="0.4"/>
</svg>
