<svg width="13" height="15" viewBox="0 0 13 15" fill="none" xmlns="http://www.w3.org/2000/svg">
<path d="M3.0625 9.23438C2.81641 9.23438 2.625 9.04297 2.625 8.79688V7.04688C2.625 6.82812 2.81641 6.60938 3.0625 6.60938H9.1875C9.40625 6.60938 9.625 6.82812 9.625 7.04688V8.79688C9.625 9.04297 9.40625 9.23438 9.1875 9.23438H3.0625ZM10.9375 2.67188C11.6484 2.67188 12.25 3.27344 12.25 3.98438V13.6094C12.25 14.3477 11.6484 14.9219 10.9375 14.9219H1.3125C0.574219 14.9219 0 14.3477 0 13.6094V3.98438C0 3.27344 0.574219 2.67188 1.3125 2.67188H2.625V1.35938C2.625 1.14062 2.81641 0.921875 3.0625 0.921875H3.9375C4.15625 0.921875 4.375 1.14062 4.375 1.35938V2.67188H7.875V1.35938C7.875 1.14062 8.06641 0.921875 8.3125 0.921875H9.1875C9.40625 0.921875 9.625 1.14062 9.625 1.35938V2.67188H10.9375ZM10.9375 13.4453V5.29688H1.3125V13.4453C1.3125 13.5547 1.36719 13.6094 1.47656 13.6094H10.7734C10.8555 13.6094 10.9375 13.5547 10.9375 13.4453Z" fill="white" fill-opacity="0.4"/>
</svg>
