<svg width="16" height="12" viewBox="0 0 16 12" fill="none" xmlns="http://www.w3.org/2000/svg">
<path id="&#239;&#128;&#140;" d="M15.6566 2.34343C15.6566 2.09091 15.5556 1.83838 15.3737 1.65657L14 0.282828C13.8182 0.10101 13.5657 0 13.3131 0C13.0606 0 12.8081 0.10101 12.6263 0.282828L6 6.91919L3.0303 3.93939C2.84848 3.75758 2.59596 3.65657 2.34343 3.65657C2.09091 3.65657 1.83838 3.75758 1.65657 3.93939L0.282828 5.31313C0.10101 5.49495 0 5.74747 0 6C0 6.25252 0.10101 6.50505 0.282828 6.68687L5.31313 11.7172C5.49495 11.899 5.74747 12 6 12C6.25252 12 6.50505 11.899 6.68687 11.7172L15.3737 3.0303C15.5556 2.84849 15.6566 2.59596 15.6566 2.34343Z" fill="#008A20"/>
</svg>
