<svg width="16" height="16" viewBox="0 0 16 16" fill="none" xmlns="http://www.w3.org/2000/svg">
<path d="M16 8C16 3.75 12.5 0.25 8.25 0.25C3.96875 0.25 0.5 3.75 0.5 8C0.5 12.2812 3.96875 15.75 8.25 15.75C12.5 15.75 16 12.2812 16 8ZM7.34375 12.125C7.15625 12.3125 6.8125 12.3125 6.625 12.125L3.375 8.875C3.1875 8.6875 3.1875 8.34375 3.375 8.15625L4.09375 7.46875C4.28125 7.25 4.59375 7.25 4.78125 7.46875L7 9.65625L11.6875 4.96875C11.875 4.75 12.1875 4.75 12.375 4.96875L13.0938 5.65625C13.2812 5.84375 13.2812 6.1875 13.0938 6.375L7.34375 12.125Z" fill="#008A20"/>
</svg>
