<svg width="10" height="14" viewBox="0 0 10 14" fill="none" xmlns="http://www.w3.org/2000/svg">
<path d="M8.53125 1.75012C9.19141 1.75012 9.75 2.30872 9.75 2.96887V11.9064C9.75 12.5919 9.19141 13.1251 8.53125 13.1251H1.21875C0.533203 13.1251 0 12.5919 0 11.9064V2.96887C0 2.30872 0.533203 1.75012 1.21875 1.75012H3.25C3.25 0.86145 3.96094 0.125122 4.875 0.125122C5.76367 0.125122 6.5 0.86145 6.5 1.75012H8.53125ZM4.875 1.14075C4.51953 1.14075 4.26562 1.42004 4.26562 1.75012C4.26562 2.10559 4.51953 2.3595 4.875 2.3595C5.20508 2.3595 5.48438 2.10559 5.48438 1.75012C5.48438 1.42004 5.20508 1.14075 4.875 1.14075ZM8.53125 11.754V3.12122C8.53125 3.04504 8.45508 2.96887 8.37891 2.96887H7.3125V3.88293C7.3125 4.06067 7.16016 4.18762 7.00781 4.18762H2.74219C2.56445 4.18762 2.4375 4.06067 2.4375 3.88293V2.96887H1.37109C1.26953 2.96887 1.21875 3.04504 1.21875 3.12122V11.754C1.21875 11.8556 1.26953 11.9064 1.37109 11.9064H8.37891C8.45508 11.9064 8.53125 11.8556 8.53125 11.754Z" fill="#A7AAAD"/>
</svg>
