<svg width="13" height="15" viewBox="0 0 13 15" fill="none" xmlns="http://www.w3.org/2000/svg">
<path d="M3.0625 9.25397C2.81641 9.25397 2.625 9.06256 2.625 8.81647V7.06647C2.625 6.84772 2.81641 6.62897 3.0625 6.62897H9.1875C9.40625 6.62897 9.625 6.84772 9.625 7.06647V8.81647C9.625 9.06256 9.40625 9.25397 9.1875 9.25397H3.0625ZM10.9375 2.69147C11.6484 2.69147 12.25 3.29303 12.25 4.00397V13.629C12.25 14.3672 11.6484 14.9415 10.9375 14.9415H1.3125C0.574219 14.9415 0 14.3672 0 13.629V4.00397C0 3.29303 0.574219 2.69147 1.3125 2.69147H2.625V1.37897C2.625 1.16022 2.81641 0.941467 3.0625 0.941467H3.9375C4.15625 0.941467 4.375 1.16022 4.375 1.37897V2.69147H7.875V1.37897C7.875 1.16022 8.06641 0.941467 8.3125 0.941467H9.1875C9.40625 0.941467 9.625 1.16022 9.625 1.37897V2.69147H10.9375ZM10.9375 13.4649V5.31647H1.3125V13.4649C1.3125 13.5743 1.36719 13.629 1.47656 13.629H10.7734C10.8555 13.629 10.9375 13.5743 10.9375 13.4649Z" fill="#8659C2"/>
</svg>
