<svg width="13" height="15" viewBox="0 0 13 15" fill="none" xmlns="http://www.w3.org/2000/svg">
<path d="M3.0625 10.8125C2.81641 10.8125 2.625 10.6211 2.625 10.375V7.75C2.625 7.53125 2.81641 7.3125 3.0625 7.3125H5.6875C5.90625 7.3125 6.125 7.53125 6.125 7.75V10.375C6.125 10.6211 5.90625 10.8125 5.6875 10.8125H3.0625ZM10.9375 2.5C11.6484 2.5 12.25 3.10156 12.25 3.8125V13.4375C12.25 14.1758 11.6484 14.75 10.9375 14.75H1.3125C0.574219 14.75 0 14.1758 0 13.4375V3.8125C0 3.10156 0.574219 2.5 1.3125 2.5H2.625V1.1875C2.625 0.96875 2.81641 0.75 3.0625 0.75H3.9375C4.15625 0.75 4.375 0.96875 4.375 1.1875V2.5H7.875V1.1875C7.875 0.96875 8.06641 0.75 8.3125 0.75H9.1875C9.40625 0.75 9.625 0.96875 9.625 1.1875V2.5H10.9375ZM10.9375 13.2734V5.125H1.3125V13.2734C1.3125 13.3828 1.36719 13.4375 1.47656 13.4375H10.7734C10.8555 13.4375 10.9375 13.3828 10.9375 13.2734Z" fill="#4BB9A7"/>
</svg>
