<svg width="16" height="16" viewBox="0 0 16 16" fill="none" xmlns="http://www.w3.org/2000/svg">
<path d="M16 8C16 3.75 12.5 0.25 8.25 0.25C3.96875 0.25 0.5 3.75 0.5 8C0.5 12.2812 3.96875 15.75 8.25 15.75C12.5 15.75 16 12.2812 16 8ZM8.25 9.5625C9.03125 9.5625 9.6875 10.2188 9.6875 11C9.6875 11.8125 9.03125 12.4375 8.25 12.4375C7.4375 12.4375 6.8125 11.8125 6.8125 11C6.8125 10.2188 7.4375 9.5625 8.25 9.5625ZM6.875 4.40625C6.84375 4.1875 7.03125 4 7.25 4H9.21875C9.4375 4 9.625 4.1875 9.59375 4.40625L9.375 8.65625C9.34375 8.875 9.1875 9 9 9H7.46875C7.28125 9 7.125 8.875 7.09375 8.65625L6.875 4.40625Z" fill="#D63638"/>
</svg>
