<svg width="46" height="46" viewBox="0 0 46 46" fill="none" xmlns="http://www.w3.org/2000/svg">
<path d="M45.2812 22.75C45.2812 35.0586 35.2188 45.0312 23 45.0312C10.6914 45.0312 0.71875 35.0586 0.71875 22.75C0.71875 10.5312 10.6914 0.46875 23 0.46875C35.2188 0.46875 45.2812 10.5312 45.2812 22.75ZM23 27.2422C20.6641 27.2422 18.8672 29.1289 18.8672 31.375C18.8672 33.7109 20.6641 35.5078 23 35.5078C25.2461 35.5078 27.1328 33.7109 27.1328 31.375C27.1328 29.1289 25.2461 27.2422 23 27.2422ZM19.0469 12.418L19.6758 24.6367C19.7656 25.2656 20.2148 25.625 20.7539 25.625H25.1562C25.6953 25.625 26.1445 25.2656 26.2344 24.6367L26.8633 12.418C26.9531 11.7891 26.4141 11.25 25.7852 11.25H20.125C19.4961 11.25 18.957 11.7891 19.0469 12.418Z" fill="#FF8845"/>
</svg>
