<svg width="11" height="10" viewBox="0 0 11 10" fill="none" xmlns="http://www.w3.org/2000/svg">
	<path d="M10.3945 3.47266C10.7656 3.98047 11 4.60547 10.9805 5.26953C10.9805 6.91016 9.63281 8.21875 7.99219 8.21875H4.4375V9.46875C4.41797 9.68359 4.18359 9.80078 4.02734 9.64453L2.30859 7.92578C2.21094 7.82812 2.21094 7.69141 2.30859 7.59375L4.02734 5.875C4.18359 5.71875 4.4375 5.83594 4.4375 6.03125V7.28125H7.99219C9.10547 7.28125 10.0625 6.38281 10.0625 5.25C10.043 4.82031 9.90625 4.41016 9.67188 4.07812C9.61328 3.98047 9.61328 3.86328 9.69141 3.78516C9.86719 3.60938 9.96484 3.51172 10.043 3.45312C10.1406 3.33594 10.2969 3.35547 10.3945 3.47266ZM1.9375 5.26953C1.9375 5.69922 2.07422 6.10938 2.30859 6.44141C2.36719 6.53906 2.36719 6.65625 2.28906 6.73438C2.11328 6.91016 2.01562 7.00781 1.9375 7.06641C1.83984 7.18359 1.68359 7.16406 1.58594 7.04688C1.21484 6.53906 0.980469 5.91406 1 5.25C1 3.60938 2.34766 2.28125 3.98828 2.28125H7.5625V1.03125C7.5625 0.835938 7.79688 0.71875 7.95312 0.875L9.67188 2.59375C9.76953 2.69141 9.76953 2.82812 9.67188 2.92578L7.95312 4.64453C7.79688 4.80078 7.5625 4.68359 7.5625 4.46875V3.21875H3.98828C2.875 3.21875 1.91797 4.13672 1.9375 5.26953Z" fill="currentColor" fill-opacity="0.4"/>
</svg>
