<svg width="16" height="7" viewBox="0 0 16 7" fill="none" xmlns="http://www.w3.org/2000/svg">
<path d="M15.1875 4.375C15.4688 4.375 15.75 4.65625 15.75 4.9375V5.5C15.75 5.81641 15.4688 6.0625 15.1875 6.0625H0.5625C0.246094 6.0625 0 5.81641 0 5.5V4.9375C0 4.65625 0.246094 4.375 0.5625 4.375H15.1875ZM15.1875 0.4375C15.4688 0.4375 15.75 0.71875 15.75 1V1.5625C15.75 1.87891 15.4688 2.125 15.1875 2.125H0.5625C0.246094 2.125 0 1.87891 0 1.5625V1C0 0.71875 0.246094 0.4375 0.5625 0.4375H15.1875Z" fill="#A7AAAD"/>
</svg>
