<svg width="16" height="19" viewBox="0 0 16 19" fill="none" xmlns="http://www.w3.org/2000/svg">
<path d="M4.0625 13.4375C3.74609 13.4375 3.5 13.1914 3.5 12.875V9.5C3.5 9.21875 3.74609 8.9375 4.0625 8.9375H7.4375C7.71875 8.9375 8 9.21875 8 9.5V12.875C8 13.1914 7.71875 13.4375 7.4375 13.4375H4.0625ZM14.1875 2.75C15.1016 2.75 15.875 3.52344 15.875 4.4375V16.8125C15.875 17.7617 15.1016 18.5 14.1875 18.5H1.8125C0.863281 18.5 0.125 17.7617 0.125 16.8125V4.4375C0.125 3.52344 0.863281 2.75 1.8125 2.75H3.5V1.0625C3.5 0.78125 3.74609 0.5 4.0625 0.5H5.1875C5.46875 0.5 5.75 0.78125 5.75 1.0625V2.75H10.25V1.0625C10.25 0.78125 10.4961 0.5 10.8125 0.5H11.9375C12.2188 0.5 12.5 0.78125 12.5 1.0625V2.75H14.1875ZM14.1875 16.6016V6.125H1.8125V16.6016C1.8125 16.7422 1.88281 16.8125 2.02344 16.8125H13.9766C14.082 16.8125 14.1875 16.7422 14.1875 16.6016Z" fill="#A7AAAD"/>
</svg>
