<svg width="18" height="15" viewBox="0 0 18 15" fill="none" xmlns="http://www.w3.org/2000/svg">
<path d="M2.8125 0.1875C3.09375 0.1875 3.375 0.46875 3.375 0.75V3C3.375 3.31641 3.09375 3.5625 2.8125 3.5625H0.5625C0.246094 3.5625 0 3.31641 0 3V0.75C0 0.46875 0.246094 0.1875 0.5625 0.1875H2.8125ZM2.8125 5.8125C3.09375 5.8125 3.375 6.09375 3.375 6.375V8.625C3.375 8.94141 3.09375 9.1875 2.8125 9.1875H0.5625C0.246094 9.1875 0 8.94141 0 8.625V6.375C0 6.09375 0.246094 5.8125 0.5625 5.8125H2.8125ZM2.8125 11.4375C3.09375 11.4375 3.375 11.7188 3.375 12V14.25C3.375 14.5664 3.09375 14.8125 2.8125 14.8125H0.5625C0.246094 14.8125 0 14.5664 0 14.25V12C0 11.7188 0.246094 11.4375 0.5625 11.4375H2.8125ZM17.4375 6.65625C17.7188 6.65625 18 6.9375 18 7.21875V7.78125C18 8.09766 17.7188 8.34375 17.4375 8.34375H6.1875C5.87109 8.34375 5.625 8.09766 5.625 7.78125V7.21875C5.625 6.9375 5.87109 6.65625 6.1875 6.65625H17.4375ZM17.4375 12.2812C17.7188 12.2812 18 12.5625 18 12.8438V13.4062C18 13.7227 17.7188 13.9688 17.4375 13.9688H6.1875C5.87109 13.9688 5.625 13.7227 5.625 13.4062V12.8438C5.625 12.5625 5.87109 12.2812 6.1875 12.2812H17.4375ZM17.4375 1.03125C17.7188 1.03125 18 1.3125 18 1.59375V2.15625C18 2.47266 17.7188 2.71875 17.4375 2.71875H6.1875C5.87109 2.71875 5.625 2.47266 5.625 2.15625V1.59375C5.625 1.3125 5.87109 1.03125 6.1875 1.03125H17.4375Z" fill="#A7AAAD"/>
</svg>
