<svg width="16" height="19" viewBox="0 0 16 19" fill="none" xmlns="http://www.w3.org/2000/svg">
<path d="M5.32812 10.625H3.92188C3.67578 10.625 3.5 10.4492 3.5 10.2031V8.79688C3.5 8.58594 3.67578 8.375 3.92188 8.375H5.32812C5.53906 8.375 5.75 8.58594 5.75 8.79688V10.2031C5.75 10.4492 5.53906 10.625 5.32812 10.625ZM9.125 10.2031C9.125 10.4492 8.91406 10.625 8.70312 10.625H7.29688C7.05078 10.625 6.875 10.4492 6.875 10.2031V8.79688C6.875 8.58594 7.05078 8.375 7.29688 8.375H8.70312C8.91406 8.375 9.125 8.58594 9.125 8.79688V10.2031ZM12.5 10.2031C12.5 10.4492 12.2891 10.625 12.0781 10.625H10.6719C10.4258 10.625 10.25 10.4492 10.25 10.2031V8.79688C10.25 8.58594 10.4258 8.375 10.6719 8.375H12.0781C12.2891 8.375 12.5 8.58594 12.5 8.79688V10.2031ZM9.125 13.5781C9.125 13.8242 8.91406 14 8.70312 14H7.29688C7.05078 14 6.875 13.8242 6.875 13.5781V12.1719C6.875 11.9609 7.05078 11.75 7.29688 11.75H8.70312C8.91406 11.75 9.125 11.9609 9.125 12.1719V13.5781ZM5.75 13.5781C5.75 13.8242 5.53906 14 5.32812 14H3.92188C3.67578 14 3.5 13.8242 3.5 13.5781V12.1719C3.5 11.9609 3.67578 11.75 3.92188 11.75H5.32812C5.53906 11.75 5.75 11.9609 5.75 12.1719V13.5781ZM12.5 13.5781C12.5 13.8242 12.2891 14 12.0781 14H10.6719C10.4258 14 10.25 13.8242 10.25 13.5781V12.1719C10.25 11.9609 10.4258 11.75 10.6719 11.75H12.0781C12.2891 11.75 12.5 11.9609 12.5 12.1719V13.5781ZM15.875 4.4375V16.8125C15.875 17.7617 15.1016 18.5 14.1875 18.5H1.8125C0.863281 18.5 0.125 17.7617 0.125 16.8125V4.4375C0.125 3.52344 0.863281 2.75 1.8125 2.75H3.5V0.921875C3.5 0.710938 3.67578 0.5 3.92188 0.5H5.32812C5.53906 0.5 5.75 0.710938 5.75 0.921875V2.75H10.25V0.921875C10.25 0.710938 10.4258 0.5 10.6719 0.5H12.0781C12.2891 0.5 12.5 0.710938 12.5 0.921875V2.75H14.1875C15.1016 2.75 15.875 3.52344 15.875 4.4375ZM14.1875 16.6016V6.125H1.8125V16.6016C1.8125 16.7422 1.88281 16.8125 2.02344 16.8125H13.9766C14.082 16.8125 14.1875 16.7422 14.1875 16.6016Z" fill="#FF8845"/>
</svg>
