<svg width="12" height="12" viewBox="0 0 12 12" fill="none" xmlns="http://www.w3.org/2000/svg">
<path d="M11.6484 0.00012207C11.8359 0.00012207 12 0.164185 12 0.351685L11.9766 4.172C11.9766 4.3595 11.8359 4.50012 11.6484 4.50012H10.875V4.52356C10.6875 4.52356 10.5234 4.3595 10.5234 4.172L10.5938 2.43762L10.5469 2.39075L4.00781 8.92981C3.96094 8.97668 3.89062 9.02356 3.82031 9.02356C3.72656 9.02356 3.65625 8.97668 3.60938 8.92981L3.07031 8.39075C3.02344 8.34387 2.97656 8.27356 2.97656 8.17981C2.97656 8.1095 3.02344 8.03918 3.07031 7.99231L9.60938 1.45325L9.5625 1.40637L7.82812 1.47668C7.64062 1.47668 7.5 1.31262 7.5 1.12512V0.351685C7.5 0.164185 7.64062 0.0235596 7.82812 0.0235596L11.6484 0.00012207ZM10.125 6.75012C10.3125 6.75012 10.5 6.93762 10.5 7.12512V10.8751C10.5 11.5079 9.98438 12.0001 9.375 12.0001H1.125C0.492188 12.0001 0 11.5079 0 10.8751V2.62512C0 2.01575 0.492188 1.50012 1.125 1.50012H4.875C5.0625 1.50012 5.25 1.68762 5.25 1.87512V2.25012C5.25 2.46106 5.0625 2.62512 4.875 2.62512H1.26562C1.17188 2.62512 1.125 2.69543 1.125 2.76575V10.7345C1.125 10.8282 1.17188 10.8751 1.26562 10.8751H9.23438C9.30469 10.8751 9.375 10.8282 9.375 10.7345V7.12512C9.375 6.93762 9.53906 6.75012 9.75 6.75012H10.125Z" fill="#A7AAAD"/>
</svg>
