<svg width="256" height="256" viewBox="0 0 256 256" fill="none" xmlns="http://www.w3.org/2000/svg">
<g clip-path="url(#clip0_3912_14655)">
<rect x="28.2995" y="28.2995" width="199.105" height="199.105" fill="white"/>
<path fill-rule="evenodd" clip-rule="evenodd" d="M57.3487 12.8591C57.3487 9.60741 58.8268 6.35568 61.1917 3.99078C63.8522 1.62589 67.1039 0.147827 70.6513 0.147827C74.1986 0.147827 77.746 1.62589 80.1109 3.99078C82.4757 6.35568 83.9538 9.3118 83.9538 12.8591L172.046 12.8591C172.046 9.60741 173.524 6.35568 175.889 3.99078C178.254 1.62589 181.801 0.147827 185.349 0.147827C188.896 0.147827 192.443 1.62589 194.808 3.99078C197.173 6.35568 198.651 9.3118 198.651 12.8591H203.085C232.351 12.8591 256 36.5081 256 65.7737L256 202.938C256 232.203 232.351 255.852 203.085 255.852L52.9145 255.852C23.649 255.852 0 232.203 0 202.938L0 65.7737C0 36.5081 23.649 12.8591 52.9145 12.8591H57.3487ZM223.483 190.522C223.483 199.686 219.935 208.259 213.432 214.762C206.928 221.266 198.356 224.813 189.192 224.813L66.8083 224.813C47.8891 224.813 32.5173 209.441 32.5173 190.522V184.314C32.5173 184.314 33.4042 182.245 34.291 182.245L158.448 182.245C166.134 182.245 172.046 176.333 172.046 168.647C172.046 161.256 165.838 155.049 158.448 155.049L47.8891 155.049C43.7506 155.049 39.9076 153.57 36.9515 150.614C33.9954 147.658 32.5173 143.815 32.5173 139.972L32.5173 68.1386C32.5173 61.6351 35.1778 55.4273 39.612 50.9931C44.0462 46.5589 50.254 43.8984 56.7575 43.8984C56.7575 43.8984 56.7575 43.8984 57.0531 43.8984C57.0531 43.8984 57.0531 43.8984 57.0531 44.194C57.0531 50.6975 62.3741 56.0185 68.8776 56.0185H72.1293C78.6328 56.0185 83.9538 50.6975 83.9538 44.194C83.9538 44.194 83.9538 43.6028 84.545 43.6028L171.455 43.6028C171.455 43.6028 172.046 43.6028 172.046 44.194C172.046 50.6975 177.367 56.0185 183.871 56.0185H187.122C193.626 56.0185 198.947 50.6975 198.947 44.194V43.8984C198.947 43.8984 198.947 43.8984 199.242 43.8984C212.841 43.8984 223.483 54.836 223.483 68.1386V84.3972C223.483 84.3972 222.596 86.4665 221.709 86.4665L97.8476 86.4665C90.4573 86.4665 84.2494 92.3788 84.2494 100.065C84.2494 107.455 90.4573 113.663 97.8476 113.663L208.406 113.663C212.545 113.663 216.388 115.141 219.344 118.097C222.3 121.053 223.778 124.896 223.778 128.739V190.522H223.483Z" fill="#FF8845"/>
</g>
<defs>
<clipPath id="clip0_3912_14655">
<rect width="256" height="256" fill="white"/>
</clipPath>
</defs>
</svg>
